# xmcd CD database file
#
# Track frame offsets:
#	182
#	9007
#	22507
#	33832
#	48457
#	62407
#	75907
#	86032
#	100132
#	110182
#	123832
#	136132
#
# Disc length: 2030 seconds
#
# Revision: 0
# Processed by: cddbd v1.5.2PL0 Copyright (c) Steve Scherf et al.
# Submitted via: ACXtractor (MTCDDB.DLL V2003.07.15)
#
DISCID=7c07ec0c
DTITLE=Kathryn Pitt - Daddys Sweat
DYEAR=1995
DGENRE=Country
TTITLE0=Daddys Sweat
TTITLE1=Rainbow down the Road
TTITLE2=It's a Jutebox
TTITLE3=Warbush Waltz
TTITLE4=Red Winged Blackbird
TTITLE5=Mr Man in the Moon
TTITLE6=Jillaroo
TTITLE7=The Old Draught Horse
TTITLE8=Something I Can do Without
TTITLE9=Really Looking For
TTITLE10=Waltz Across Texas
TTITLE11=I Am Australian
EXTD=ID3G:   2 YEAR: 1995
EXTT0=
EXTT1=
EXTT2=
EXTT3=
EXTT4=
EXTT5=
EXTT6=
EXTT7=
EXTT8=
EXTT9=
EXTT10=
EXTT11=
PLAYORDER=
